<svg xmlns="http://www.w3.org/2000/svg" xml:space="preserve" width="522.5" height="527.5" viewBox="0 0 1045 1055" overflow="hidden"><path fill="none" stroke="red" stroke-miterlimit="8" stroke-width="6.875" d="M5.5 60.501C5.5 30.125 30.12 5.5 60.5 5.5h220c30.38 0 55 24.625 55 55.001V280.5c0 30.38-24.62 55-55 55h-220c-30.38 0-55-24.62-55-55Z"/><text fill="#fff" font-family="JetBrains Mono,JetBrains Mono_MSFontService,sans-serif" font-size="83" font-weight="400" transform="translate(145.4 197)">0</text><path fill="none" stroke="#fff" stroke-miterlimit="8" stroke-width="6.875" d="M5.5 417.5c0-30.38 24.62-55 55-55h220c30.38 0 55 24.62 55 55v220c0 30.38-24.62 55-55 55h-220c-30.38 0-55-24.62-55-55Z"/><text fill="#fff" font-family="JetBrains Mono,JetBrains Mono_MSFontService,sans-serif" font-size="83" font-weight="400" transform="translate(145.4 554)">A</text><path fill="none" stroke="red" stroke-miterlimit="8" stroke-width="6.875" d="M710.5 60.501c0-30.376 24.62-55.001 55-55.001h220c30.38 0 55 24.625 55 55.001V280.5c0 30.38-24.62 55-55 55h-220c-30.38 0-55-24.62-55-55Z"/><text fill="#fff" font-family="JetBrains Mono,JetBrains Mono_MSFontService,sans-serif" font-size="83" font-weight="400" transform="translate(849.92 197)">2</text><path fill="none" stroke="#fff" stroke-miterlimit="8" stroke-width="6.875" d="M710.5 417.5c0-30.38 24.62-55 55-55h220c30.38 0 55 24.62 55 55v220c0 30.38-24.62 55-55 55h-220c-30.38 0-55-24.62-55-55Z"/><text fill="#fff" font-family="JetBrains Mono,JetBrains Mono_MSFontService,sans-serif" font-size="83" font-weight="400" transform="translate(849.92 554)">C</text><path fill="none" stroke="#00f" stroke-miterlimit="8" stroke-width="6.875" d="M710.5 774.5c0-30.38 24.62-55 55-55h220c30.38 0 55 24.62 55 55v220c0 30.38-24.62 55-55 55h-220c-30.38 0-55-24.62-55-55Z"/><text fill="#fff" font-family="JetBrains Mono,JetBrains Mono_MSFontService,sans-serif" font-size="83" font-weight="400" transform="translate(849.92 910)">Z</text><path fill="none" stroke="#00f" stroke-miterlimit="8" stroke-width="6.875" d="M5.5 774.5c0-30.38 24.62-55 55-55h220c30.38 0 55 24.62 55 55v220c0 30.38-24.62 55-55 55h-220c-30.38 0-55-24.62-55-55Z"/><text fill="#fff" font-family="JetBrains Mono,JetBrains Mono_MSFontService,sans-serif" font-size="83" font-weight="400" transform="translate(145.4 910)">X</text><path fill="none" stroke="red" stroke-miterlimit="8" stroke-width="6.875" d="M357.5 60.501c0-30.376 24.62-55.001 55-55.001h220c30.38 0 55 24.625 55 55.001V280.5c0 30.38-24.62 55-55 55h-220c-30.38 0-55-24.62-55-55Z"/><text fill="#fff" font-family="JetBrains Mono,JetBrains Mono_MSFontService,sans-serif" font-size="83" font-weight="400" transform="translate(497.66 197)">1</text><path fill="none" stroke="#fff" stroke-miterlimit="8" stroke-width="6.875" d="M357.5 417.5c0-30.38 24.62-55 55-55h220c30.38 0 55 24.62 55 55v220c0 30.38-24.62 55-55 55h-220c-30.38 0-55-24.62-55-55Z"/><text fill="#fff" font-family="JetBrains Mono,JetBrains Mono_MSFontService,sans-serif" font-size="83" font-weight="400" transform="translate(497.66 554)">B</text><path fill="none" stroke="#00f" stroke-miterlimit="8" stroke-width="6.875" d="M357.5 774.5c0-30.38 24.62-55 55-55h220c30.38 0 55 24.62 55 55v220c0 30.38-24.62 55-55 55h-220c-30.38 0-55-24.62-55-55Z"/><text fill="#fff" font-family="JetBrains Mono,JetBrains Mono_MSFontService,sans-serif" font-size="83" font-weight="400" transform="translate(497.66 910)">Y</text></svg>