<svg xmlns="http://www.w3.org/2000/svg" version="1.1" xmlns:xlink="http://www.w3.org/1999/xlink" width="1000" height="1000"><g clip-path="url(#SvgjsClipPath1031)"><rect width="1000" height="1000" fill="#000000"></rect><g transform="matrix(3.4482758620689653,0,0,3.4482758620689653,151.72413793103448,150)"><svg xmlns="http://www.w3.org/2000/svg" version="1.1" xmlns:xlink="http://www.w3.org/1999/xlink" width="202" height="203"><svg width="202" height="203" xmlns="http://www.w3.org/2000/svg" xmlns:xlink="http://www.w3.org/1999/xlink" xml:space="preserve" overflow="hidden"><defs><clipPath id="clip0"><rect x="802" y="418" width="202" height="203"></rect></clipPath><clipPath id="clip1"><rect x="802" y="418" width="202" height="203"></rect></clipPath><clipPath id="clip2"><rect x="803" y="419" width="201" height="202"></rect></clipPath><clipPath id="clip3"><rect x="803" y="419" width="201" height="202"></rect></clipPath><clipPath id="clip4"><rect x="803" y="419" width="201" height="202"></rect></clipPath><clipPath id="SvgjsClipPath1031"><rect width="1000" height="1000" x="0" y="0" rx="350" ry="350"></rect></clipPath></defs><g clip-path="url(#clip0)" transform="translate(-802 -418)"><g clip-path="url(#clip1)"><g clip-path="url(#clip2)"><g clip-path="url(#clip3)"><g clip-path="url(#clip4)"><path d="M662.703 743.966C662.703 725.464 677.701 710.465 696.203 710.465L830.203 710.465C848.705 710.465 863.703 725.464 863.703 743.966L863.703 877.965C863.703 896.467 848.705 911.465 830.203 911.465L696.203 911.465C677.701 911.465 662.703 896.467 662.703 877.965Z" fill="#000000" fill-rule="evenodd" fill-opacity="1" transform="matrix(1 0 0 1.00498 140.297 -295)"></path><path d="M754.769 727.693C769.006 726.519 782.691 728.664 795.831 734.126 814.742 744.218 825.148 759.974 827.049 781.394 827.921 798.911 828.107 816.44 827.612 833.977 826.278 868.488 808.56 888.719 774.457 894.671 756.31 897.315 739.436 893.958 723.833 884.602 709.174 873.635 701.018 858.997 699.365 840.689 698.245 821.314 698.245 801.89 699.365 782.513 703.549 749.916 722.016 731.643 754.769 727.693M756.456 752.305C767.369 750.988 777.494 753.133 786.831 758.738 795.533 766.079 799.943 775.495 800.05 786.988 800.427 803.397 800.427 819.806 800.05 836.215 799.015 856.447 788.423 867.914 768.269 870.617 755.642 872.122 744.673 868.672 735.363 860.269 730.588 854.607 727.775 848.081 726.926 840.689 726.06 823.923 725.869 807.126 726.364 790.345 725.824 769.176 735.853 756.497 756.456 752.305" fill="#0000FF" fill-rule="evenodd" fill-opacity="0.980392" transform="matrix(1 0 0 1.00498 140.297 -295)"></path><path d="M762.197 805.055C765.015 804.74 767.342 805.666 769.18 807.829 771.234 812.282 770.087 815.552 765.738 817.638 762.693 818.433 760.169 817.608 758.164 815.161 756.109 810.368 757.454 806.999 762.197 805.055" fill="#FE0000" fill-rule="evenodd" fill-opacity="0.968627" transform="matrix(1 0 0 1.00498 140.297 -295)"></path></g></g></g></g></g></svg></svg></g></g></svg>