<svg xmlns="http://www.w3.org/2000/svg" width="1000" height="1000"><g clip-path="url(#a)"><path d="M0 0h1000v1000H0z"/><svg xmlns="http://www.w3.org/2000/svg" xmlns:xlink="http://www.w3.org/1999/xlink" width="202" height="203" transform="translate(151.724 150)scale(3.44828)"><svg xmlns="http://www.w3.org/2000/svg" xmlns:xlink="http://www.w3.org/1999/xlink" xml:space="preserve" width="202" height="203" overflow="hidden"><defs><clipPath id="b"><path d="M802 418h202v203H802z"/></clipPath><clipPath id="c"><path d="M802 418h202v203H802z"/></clipPath><clipPath id="d"><path d="M803 419h201v202H803z"/></clipPath><clipPath id="e"><path d="M803 419h201v202H803z"/></clipPath><clipPath id="f"><path d="M803 419h201v202H803z"/></clipPath><clipPath id="a"><rect width="1000" height="1000" rx="350" ry="350"/></clipPath></defs><g clip-path="url(#b)" transform="translate(-802 -418)"><g clip-path="url(#c)"><g clip-path="url(#d)"><g clip-path="url(#e)"><g fill-rule="evenodd" clip-path="url(#f)"><path d="M803 452.671c0-18.594 14.998-33.668 33.5-33.668h134c18.502 0 33.5 15.074 33.5 33.668v134.666c0 18.594-14.998 33.667-33.5 33.667h-134c-18.502 0-33.5-15.073-33.5-33.667Z"/><path fill="#00f" fill-opacity=".98" d="M895.066 436.317q21.354-1.77 41.062 6.465 28.366 15.213 31.218 47.503a681 681 0 0 1 .563 52.845q-2 52.024-53.155 60.996-27.22 3.986-50.624-10.119-21.989-16.532-24.468-44.131a509 509 0 0 1 0-58.466q6.275-49.139 55.404-55.093m1.687 24.734q16.37-1.984 30.375 6.466c8.702 7.377 13.112 16.84 13.219 28.39q.565 24.736 0 49.472-1.551 30.499-31.781 34.574-18.94 2.268-32.906-10.4-7.163-8.535-8.437-19.677a627 627 0 0 1-.562-50.595q-.811-31.911 30.092-38.23"/><path fill="#fe0000" fill-opacity=".969" d="M902.494 514.064q4.226-.473 6.983 2.788 3.081 6.712-3.442 9.858-4.567 1.2-7.574-2.49-3.082-7.225 4.033-10.156"/></g></g></g></g></g></svg></svg></g></svg>